<?xml version="1.0" standalone="no"?>
<!DOCTYPE svg PUBLIC "-//W3C//DTD SVG 20010904//EN"
 "http://www.w3.org/TR/2001/REC-SVG-20010904/DTD/svg10.dtd">
<svg version="1.0" xmlns="http://www.w3.org/2000/svg"
 width="600.000000pt" height="600.000000pt" viewBox="0 0 600.000000 600.000000"
 preserveAspectRatio="xMidYMid meet">
<metadata>
Created by potrace 1.14, written by Peter Selinger 2001-2017
</metadata>
<g transform="translate(0.000000,600.000000) scale(0.100000,-0.100000)"
fill="#000000" stroke="none">
<path d="M2988 5175 c-2 -1 -37 -5 -78 -9 -76 -6 -95 -9 -185 -26 -27 -6 -59
-12 -71 -14 -47 -9 -175 -49 -264 -83 -554 -211 -1007 -690 -1204 -1274 -42
-125 -77 -261 -90 -354 -4 -23 -9 -52 -11 -65 -21 -101 -23 -461 -4 -565 4
-22 10 -62 13 -90 4 -27 9 -57 11 -65 2 -8 6 -26 9 -40 26 -149 104 -368 193
-543 207 -404 522 -718 918 -915 173 -86 385 -158 524 -177 224 -32 377 -38
546 -21 347 34 687 169 985 390 109 81 345 311 360 351 8 22 7 33 -5 51 -27
41 -61 31 -119 -33 -265 -294 -537 -468 -926 -591 -82 -26 -212 -50 -333 -60
-405 -36 -822 68 -1162 289 -365 238 -634 575 -788 989 -39 105 -83 260 -92
330 -4 24 -8 47 -10 51 -10 15 -30 268 -29 359 1 111 14 253 30 344 9 45 17
93 20 108 7 40 60 214 88 293 35 96 135 289 197 382 85 126 138 192 239 297
272 281 586 457 970 542 66 15 87 18 195 31 109 13 328 7 445 -11 14 -2 45 -7
70 -10 25 -4 59 -11 75 -16 17 -4 64 -18 105 -30 141 -40 283 -102 457 -199
57 -32 87 -31 104 1 25 47 0 72 -168 160 -185 97 -455 185 -619 203 -28 3 -61
8 -75 11 -25 5 -316 14 -321 9z"/>
<path d="M2970 4683 c-28 -3 -154 -23 -184 -29 -38 -7 -133 -36 -201 -61 -201
-74 -397 -204 -552 -364 -109 -113 -134 -159 -99 -188 31 -26 56 -21 94 21
126 138 230 229 344 302 458 291 1045 282 1496 -22 295 -198 516 -518 606
-877 54 -216 57 -499 7 -716 -102 -446 -401 -824 -798 -1010 -124 -58 -209
-85 -368 -114 -16 -3 -70 -8 -120 -12 -49 -3 -100 -9 -112 -14 -33 -12 -41
-56 -15 -82 25 -24 85 -26 227 -6 264 36 545 155 729 309 188 157 312 308 415
503 191 359 240 794 136 1192 -180 690 -786 1173 -1469 1172 -61 0 -122 -2
-136 -4z"/>
<path d="M4923 4637 c-12 -5 -30 -26 -39 -46 -16 -32 -18 -75 -18 -371 -1
-184 2 -355 6 -380 4 -25 10 -61 13 -80 11 -69 58 -202 86 -242 15 -23 44 -51
65 -63 24 -14 41 -32 46 -51 9 -28 11 -331 4 -444 -13 -205 -18 -270 -21 -305
-2 -22 -6 -81 -10 -130 -3 -50 -8 -110 -10 -135 -12 -119 -19 -279 -20 -421 0
-141 2 -159 19 -178 39 -43 85 -63 151 -67 55 -3 71 1 117 25 77 41 80 49 73
231 -3 85 -7 166 -9 180 -3 14 -7 66 -10 115 -8 119 -16 223 -21 260 -2 17 -7
80 -11 140 -3 61 -8 126 -10 145 -2 19 -6 132 -8 250 -4 157 -1 232 9 280 12
59 32 90 58 90 21 0 78 53 96 88 58 113 65 184 65 657 0 337 -1 373 -18 407
-24 50 -77 66 -114 35 -41 -33 -45 -63 -49 -357 -2 -157 -6 -291 -8 -297 -6
-18 -52 -16 -59 3 -3 9 -6 147 -6 307 0 269 -2 294 -19 323 -35 58 -111 50
-143 -16 -16 -31 -18 -68 -17 -320 1 -157 1 -291 0 -297 -1 -7 -12 -13 -26
-13 l-25 0 0 314 0 313 -25 27 c-13 14 -28 26 -32 27 -42 5 -62 4 -80 -4z m67
-56 c12 -8 14 -58 12 -318 -2 -354 -3 -351 79 -360 37 -4 47 -1 66 19 22 23
22 28 23 330 1 238 4 310 14 324 12 15 16 16 30 5 14 -12 16 -50 16 -315 0
-270 2 -303 18 -322 41 -51 114 -55 150 -9 17 21 19 45 21 242 3 267 7 363 16
386 11 26 37 17 46 -17 13 -47 3 -803 -11 -866 -26 -116 -69 -179 -134 -196
-34 -8 -63 -71 -74 -159 -12 -102 -5 -415 13 -635 2 -25 7 -81 10 -125 3 -44
8 -98 10 -120 2 -22 7 -78 10 -125 4 -47 8 -101 10 -120 2 -27 10 -168 17
-300 3 -62 -3 -77 -41 -98 -66 -37 -175 -21 -202 30 -10 18 -13 218 -4 298 2
19 6 76 9 125 4 50 8 117 11 150 7 93 14 191 20 290 4 50 8 113 11 140 2 28 6
163 9 300 5 291 -2 337 -58 360 -45 19 -73 52 -101 121 -54 133 -61 199 -61
585 0 287 3 359 14 372 15 19 29 21 51 8z"/>
<path d="M523 4506 c-106 -39 -187 -121 -214 -216 -19 -72 -16 -403 6 -532 34
-198 39 -221 71 -326 29 -98 65 -157 111 -187 24 -16 33 -31 41 -70 10 -49 9
-398 -2 -500 -3 -28 -8 -102 -11 -165 -4 -63 -8 -131 -10 -150 -2 -19 -6 -84
-10 -145 -4 -60 -9 -126 -10 -145 -9 -88 -16 -404 -11 -434 13 -69 75 -107
173 -107 53 0 73 5 118 31 60 35 69 51 69 135 -1 55 -13 273 -19 320 -2 17 -6
77 -10 135 -4 58 -9 113 -11 123 -2 10 -6 62 -9 115 -4 53 -8 113 -11 132 -5
44 -17 363 -17 450 -1 36 3 103 7 149 8 89 7 87 90 154 50 40 105 170 122 287
31 226 36 283 36 437 0 284 -21 368 -117 456 -79 72 -261 97 -382 53z m292
-65 c118 -53 152 -154 149 -446 -1 -127 -11 -292 -18 -304 -2 -3 -7 -33 -10
-66 -20 -174 -75 -303 -143 -331 -25 -11 -40 -27 -56 -62 -20 -44 -22 -61 -22
-307 0 -143 4 -305 8 -360 4 -55 10 -129 13 -165 2 -36 6 -85 9 -110 2 -25 7
-83 10 -130 4 -47 8 -96 10 -110 3 -23 7 -80 20 -308 2 -40 0 -83 -5 -97 -16
-42 -77 -63 -167 -56 -12 0 -34 11 -48 24 -27 23 -27 23 -25 157 0 74 3 153 4
175 2 22 7 87 11 145 3 58 8 125 10 150 2 25 6 90 10 145 4 55 8 120 10 145
21 267 24 602 5 679 -10 44 -19 56 -51 77 -64 40 -108 150 -149 375 -27 147
-34 238 -34 434 0 191 7 217 81 291 87 87 251 111 378 55z"/>
<path d="M648 4323 c-12 -15 -4 -43 14 -44 46 -3 61 -8 84 -30 36 -33 71 -107
90 -185 30 -129 10 -336 -42 -436 -23 -45 -71 -88 -98 -88 -29 0 -49 -22 -40
-44 11 -28 67 -20 116 17 90 68 140 225 134 422 -4 163 -44 283 -119 358 -37
37 -118 55 -139 30z"/>
</g>
</svg>
